<svg id="Layer_1" data-name="Layer 1" xmlns="http://www.w3.org/2000/svg" viewBox="0 0 170.12 247.64"><defs><style>.cls-1{fill:#b26431;}.cls-2{fill:#cc8a2b;}.cls-3{fill:#e8d6d6;}.cls-4{fill:#e2b024;}.cls-5{fill:#eacb7d;}</style></defs><rect class="cls-1" x="79.63" y="72.99" width="4.28" height="44.76"/><path class="cls-2" d="M85.06,18.82a326.09,326.09,0,0,1-1.15,44.67C81.46,88.2,102.74,73,102.74,73S105.36,47.59,85.06,18.82Z"/><path class="cls-3" d="M31.37,185C24.24,210.45,0,197.74,0,197.74v-80H26c-14.26,3.67-14.73,23.92-10.34,33.43S38.5,159.61,31.37,185Z"/><path class="cls-3" d="M170.12,117.75V247.64c-13.35,0-22.2-15.21-24.34-33.5-2.06-17.63,5-44,10.93-63.45s-13.3-32.94-13.3-32.94Z"/><path class="cls-3" d="M112.57,214.14c-5.34.18-22.63-5.71-26.19-26.38s14.08-36.89,17.82-46.69c3.23-8.46-1.79-16.4-9.07-19.55a9.19,9.19,0,0,0-6.35-.32c-5.58,1.68-11.34,4-14.76,7.17-8.47,7.73-14.56,17.73-14.26,26.37.24,6.8,9.5,15.92,7.6,23-3,11.13-11.64,12.35-19.48,11.64s-7.63-13.69-5-20.68c5.7-15.07,4.52-20.43,4.75-27.8s0-17.58-18.53-23.2h102s-10.69,18.51-11.23,34,12.83,14.19,14.44,36.36C136,211.83,117.92,214,112.57,214.14Z"/><path class="cls-4" d="M80.25,0c-26.63,28.79-26.39,95.34-.8,95.37,19.44,0,31.75-28.16,17.94-43.9C77.82,29.15,80.25,0,80.25,0Z"/><path class="cls-5" d="M71.28,39.33S62.94,66.69,74.1,81,86.63,52.81,86.63,52.81,78.36,84.11,71.28,39.33Z"/></svg>